<?xml version="1.0" encoding="UTF-8"?>
<svg xmlns="http://www.w3.org/2000/svg" version="1.1" xmlns:xlink="http://www.w3.org/1999/xlink" viewBox="0 0 2158 654">
  <!-- Generator: Adobe Illustrator 29.3.1, SVG Export Plug-In . SVG Version: 2.1.0 Build 151)  -->
  <defs>
    <style>
      .st0 {
        fill: #003da6;
      }

      .st1 {
        fill: #fff;
      }

      .st2 {
        fill: #bcbec0;
      }

      .st3 {
        isolation: isolate;
      }

      .st4 {
        fill: #ededee;
      }

      .st4, .st5 {
        mix-blend-mode: multiply;
      }

      .st5 {
        fill: #b6c5cc;
        opacity: .5;
      }

      .st6 {
        fill: #d1d3d4;
      }
    </style>
  </defs>
  <g class="st3">
    <g id="Layer_1">
      <image id="Katman_1" class="st3" width="2084" height="589" transform="translate(37 32)" xlink:href="sitelogo-1.png"/>
      <polygon class="st1" points="435 499 21 499 21 15.2 570 15.2 435 499"/>
      <g>
        <path class="st6" d="M419.7,169.1c-8-3.8-14-8.1-18.8-15.7-4.3-6.9-7.5-14.4-11.5-21.5-9.4-16.2-19.4-32.2-29.5-48-5-7.8-10.3-15.4-16.6-22.3-2.8-3.1-6-5.8-9.1-8.6-.9-.8-1.9-1.6-2.9-2.3-1.4-2.9-2.5-5.9-2.7-9.1-.2-4.1.6-7.9-.7-11.9-1.8-5.4-7-.7-9.2,1.6-2.3,2.4-4.4,4.8-7.1,7-4.6,3.8-10.2,6.5-15.7,8.8-8.8,3.7-18.1,6.3-27,9.7-1.5-2.3-3.5-4.4-5.4-6.2-3.4-3.2-6.5-6.6-9.9-9.9-2.8-2.7-5.7-5.1-9.1-7.1-3.2-1.8-6.4-3.4-9.5-5.6-3.5-2.5-5.4-5.3-5.8-9.5-.2-1.8-.6-4.7-2.9-5.1-2.5-.4-4.1.3-5.3,2.6-2,3.8-4.2,7.2-7.3,10.2-9.2,5.5-17.9,11.9-26.8,17.8-10,6.6-19.9,13.2-29.8,19.9-19.1,12.9-37.7,26.4-55.4,41.2-17.3,14.4-33.7,29.9-48.4,46.8-7.1,8.2-13.8,16.8-20,25.7-6.2,8.9-11.7,18.8-19.7,26.3-7.6,7.1-18.2,14.2-19.5,25.5-.3,2.7-.2,6.5,2.7,7.8,3.8,1.8,6.8-2.3,9.9-3.9,2.2.4,4.1,2.3,5.8,3.6,2.7,2.2,5.1,4.7,7.4,7.2,5.9,6.3,11.6,12.8,17.5,19.1,7.2,7.6,15.8,13.9,24.2,20.3,8.6,6.6,17.7,12.6,27,18.1,9.3,5.5,18.8,10.6,28.3,15.6,4.2,2.2,8.5,4.1,12.7,6.1,5,2.5,8.9,5.4,9.8,11.2.6,3.8,2.6,15.3,8.6,9.4,2.2-2.2,2.8-5.6,2.9-8.6,0-2.4-.3-4.6,1.1-6.7,1.1-1.8,3.2-3.2,5.2-4.2,1.5,1.5,3,3,4.5,4.5,7.6,7.6,4.2,17.3,5.9,26.7.9,4.9,5.2,9.2,9.9,5.9,6-4.1,8.3-12.2,10.9-18.8,6.4-4.6,13.5-8.2,20.6-11.7,10.4-5,20.7-10.2,30.8-15.9,20.4-11.6,39.5-25.3,59.1-38.1,19.6-12.9,37.2-27.8,54.6-43.4,17.6-15.8,34.2-33.7,55.3-45,6.6-3.5,13.3-5,20.5-6.1.6-.4,1.2-.9,1.7-1.4.9-1,1.3-2.1,1.3-3.2-1.2-4.4-9.3-7.4-12.3-8.8Z"/>
        <path class="st1" d="M150.1,327.5c-1.9,2.6-1.6,6.1-1.7,9.2,0,1.9-1.9,7.4-4.6,4.7-1.7-1.7-1.9-4.9-2.1-7.1-.5-3.8-1.3-6.9-4.2-9.5-3.2-2.8-7.6-4.4-11.5-6.1-4.8-2.1-9.5-4.6-14.1-7.1-9.5-5.1-18.8-10.7-27.8-16.7-17.9-11.8-35.7-25-50.3-40.7-4.9-5.3-10-10.7-15.3-15.6-2.7-2.5-6.6-6.1-10.7-6.5,0-.2-.1-.4-.4-.4-.6,0-1.2.2-1.8.4-.3,0-.5.1-.8.2,0,0-.2.1-.2.2-2.1.9-4.1,2.1-6.5,1.8-3.6-.5-1.6-7-.8-8.9,3.6-9.5,14.3-15.2,21-22.4,7-7.6,12.3-17,18.2-25.5,6.6-9.4,13.9-18.4,21.5-27,30.9-34.7,68.3-62.6,106.8-88.3,8.7-5.8,17.5-11.6,26.3-17.4,8.9-5.9,17.9-11.6,26.1-18.5.4-.3.5-1.4.2-1.9.9-.8,1.8-1.6,2.6-2.6.8-1,1.4-2.1,1.9-3.2.6-2.2,2.3-2.6,5-1.4.5.9.3,2.2.4,3.2.4,5.3,4.2,8.8,8.4,11.6,5.4,3.7,10.9,6.2,15.7,10.8,5.2,4.9,10.6,9.6,15.5,14.6-.6.3-1.2.5-1.9.8-21.9,9.5-42.4,22.9-62,36.3-19.5,13.3-38.6,27.3-57.5,41.6-10.3,7.8-20.6,15.6-30.8,23.5-9.4,7.3-18.9,14.5-27.7,22.5-3.9,3.6-7.5,7.4-10.7,11.6-3.6,4.7-6.3,9.9-10.2,14.4-2.7,3.2-6,5.4-9.2,7.9-.7.5-1.3,1.2-1.7,2-1.6,1.5-2.5,3.3-1.2,5.2s4.6,3,6.7,3.7c3,1,6,1.7,9.1,2.3,11.4,2,16,13,22.6,21.2,7.5,9.1,14.4,18.8,21.8,28,12.8,15.8,26.9,30.1,41.2,44.4-2,1.2-3.8,2.8-5.2,4.8Z"/>
        <path class="st4" d="M251.3,42.9c-4.8-4.5-10.3-7.1-15.7-10.8-4.2-2.8-8-6.4-8.4-11.6,0-.9,0-2.3-.4-3.2-2.1-.9-3.6-.9-4.4.2,0,1.1,0,2.3,0,3.6-.5,4.6-2,9.8-.4,14.3,1.4,3.9,6.9,4.4,10.4,5.8,10,4.1,18.2,11.4,8.2,21-7.2,6.9-17.6,10.8-26.4,15.1-9.6,4.7-18.7,10.3-27.6,16.2-38.6,25.5-75.3,54.7-108.7,86.7-7.7,7.3-15.7,14.7-22,23.3-5.4,7.3-7.8,15.9-12.7,23.3-2.2,3.4-5.3,5.7-9.5,3.7-5.9-2.9-10.3-5.3-17-5.7-16.1-1-.5-17.6,5.3-21.6,9.4-6.4,13.2-18.5,17.8-28.5.7-1.5,1.4-3,2.1-4.5-1.8,2.4-3.6,4.9-5.4,7.4-6,8.5-11.2,17.8-18.2,25.5-6.6,7.2-17.4,12.9-21,22.4-.7,1.9-2.8,8.4.8,8.9,2.3.3,4.4-.9,6.5-1.8,0,0,.1-.2.2-.2.3,0,.5-.1.8-.2.6-.2,1.2-.4,1.8-.4.2,0,.3.1.4.4,4.1.4,8,4,10.7,6.5,5.3,4.9,10.4,10.3,15.3,15.6,14.6,15.7,32.4,28.9,50.3,40.7,9,6,18.3,11.6,27.8,16.7,4.7,2.5,9.3,5,14.1,7.1,3.9,1.7,8.3,3.3,11.5,6.1,2.9,2.6,3.8,5.7,4.2,9.5.3,2.2.4,5.4,2.1,7.1,2.7,2.7,4.5-2.8,4.6-4.7,0-3.1-.3-6.6,1.7-9.2,1.4-1.9,3.2-3.5,5.2-4.8-14.3-14.3-28.5-28.6-41.2-44.4-7.4-9.2-14.3-18.8-21.8-28-6.7-8.2-11.2-19.3-22.6-21.2-3.1-.5-6.1-1.2-9.1-2.3-2.1-.7-5.4-1.7-6.7-3.7s-.3-3.7,1.2-5.2c.4-.7,1-1.4,1.7-2,3.3-2.5,6.5-4.8,9.2-7.9,3.8-4.5,6.6-9.7,10.2-14.4,3.2-4.2,6.8-8,10.7-11.6,8.8-8,18.3-15.2,27.7-22.5,10.2-7.9,20.4-15.7,30.8-23.5,18.9-14.2,37.9-28.2,57.5-41.6,19.7-13.4,40.1-26.8,62-36.3.6-.3,1.2-.5,1.9-.8-5-5.1-10.4-9.8-15.5-14.6Z"/>
        <path class="st4" d="M92.4,250.4c-6.7-8.2-11.2-19.3-22.6-21.2-3.1-.5-6.1-1.2-9.1-2.3-2.1-.7-5.4-1.7-6.7-3.7s-.6-3,.4-4.2c-2.3,1-4.5,2.1-6.6,3.4-7.4,4.8,16.4,16.1,20.1,18.6,9.4,6.2,17.9,13.6,25.4,22,7.1,7.9,14.8,16.7,17.7,27.1.7,2.4-.9,4.6-3.4,4.8-9.8.9-19.1-4.8-26.8-10.2-9.7-6.8-18.5-14.8-27.1-23-8.6-8.2-19.4-15.7-27.5-24.5-4.8-5.2-8.8-11.3-16.8-10.2-4.8.7-11.3,8.6-13.3,2.9-.2,2.1,0,4.1,2,4.3,2.3.3,4.4-.9,6.5-1.8,0,0,.1-.2.2-.2.3,0,.5-.1.8-.2.6-.2,1.2-.4,1.8-.4.2,0,.3.1.4.4,4.1.4,8,4,10.7,6.5,5.3,4.9,10.4,10.3,15.3,15.6,14.6,15.7,32.4,28.9,50.3,40.7,9,6,18.3,11.6,27.8,16.7,4.7,2.5,9.3,5,14.1,7.1,3.9,1.7,8.3,3.3,11.5,6.1,2.9,2.6,3.8,5.7,4.2,9.5.3,2.2.4,5.4,2.1,7.1,2.7,2.7,4.5-2.8,4.6-4.7,0-3.1-.3-6.6,1.7-9.2,1.4-1.9,3.2-3.5,5.2-4.8-14.3-14.3-28.5-28.6-41.2-44.4-7.4-9.2-14.3-18.8-21.8-28Z"/>
        <path class="st1" d="M429.5,179c.5,2.9-5.7,2.4-8.7,2.1-5.3,1.3-10.4,3.7-15,6.3-9.9,5.6-18.9,12.8-27.4,20.2-17.8,15.4-34.5,32-52.8,47-18.5,15.1-39.3,27.7-59.1,41-19.4,12.9-39.6,23.9-60.5,34.2-6,3-11.8,6.2-17,10.3,0,0,0,0,0,0-1.6,1.4-3.1,2.9-4.6,4.4-1.2,1.2-2.2,2.7-3.1,4.1,1.1-1,2.2-2,3.4-3-1.3,2.5-2.6,5-4,7.4-1.3,2.2-2.9,4.5-5.2,5.7-3.8,1.9-5.9-4.9-6.4-7.2-.8-4.1-.3-8.4-.9-12.5-.6-4-2.3-7.4-4.7-10.6-6.9-8.9-15.2-17.2-23-25.3-16.4-16.9-30-36-45.5-53.7-6.4-7.3-12-16.5-20.5-21.3-5.6-3.2-11.7-4-17.5-6.6,0-.3,0-.6-.3-.4-.2-.4-.5-.8-.7-1.2.2-.5.7-1.1,1.3-1.6.1,0,.3-.2.4-.2.6-.4,1.3-.8,1.9-1.2,1.2-.7,2.2-1.4,3.3-2.3,3.9-3.2,6.8-7,9.6-11.1,3-4.3,5.8-8.6,9.3-12.5,3.8-4.2,8-8,12.3-11.6,18-15.1,37-29.1,55.8-43.2,19.2-14.5,38.6-28.6,58.6-42,19.1-12.8,39.2-25.7,60.6-34.4.8-.8,2.2-1.1,3.2-1.5.2,0,.3,0,.4,0,15.9-5.9,33.7-9.6,45.6-22.7,1.6-1.8,3.2-3.7,5.2-4.9,3.8-2.4,3.5,5.2,3.4,7.1-.2,3.5-.2,6.6.6,9.9-1.3-1-2.5-2.2-3.5-3.5,1.5,3.6,4.4,6.5,7.5,9.1,3.2,2.7,6.1,5.4,8.6,8.7,1.3,1.8,2.6,3.6,3.8,5.4,3.8,4.5,7.2,9.3,10.5,14.2,9.4,14.1,17.9,28.8,26.8,43.3,7.6,12.5,13.9,26.3,23.8,37.2,4.9,5.3,10.9,8.8,17.2,12.1,1.4.7,2.7,1.5,4.1,2.4,0,0,.1.1.2.1,1.4.5,3.3,1.2,3.6,2.5Z"/>
        <path class="st4" d="M425.9,176.4c0,0-.1-.1-.2-.1-1.3-.9-2.7-1.6-4.1-2.4-6.3-3.3-12.3-6.8-17.2-12.1-10-10.9-16.2-24.7-23.8-37.2-8.8-14.5-17.4-29.1-26.8-43.3-3.2-4.9-6.7-9.7-10.5-14.2-1.2-1.8-2.5-3.6-3.8-5.4-2.5-3.3-5.5-6-8.6-8.7-3-2.5-5.9-5.4-7.5-9.1,1,1.3,2.2,2.4,3.5,3.5-.8-3.3-.8-6.4-.6-9.9.1-1.9.4-9.4-3.4-7.1-2,1.3-3.6,3.2-5.2,4.9-11.8,13.1-29.7,16.8-45.6,22.7,0-.1-.2-.2-.4,0-1,.4-2.4.7-3.2,1.5-21.4,8.6-41.5,21.6-60.6,34.4-19.9,13.4-39.4,27.5-58.6,42-18.8,14.1-37.7,28.1-55.8,43.2-4.3,3.6-8.6,7.4-12.3,11.6-3.5,3.9-6.3,8.2-9.3,12.5-2.8,4.1-5.8,7.9-9.6,11.1-1,.9-2.1,1.6-3.3,2.3-.6.4-1.3.8-1.9,1.2-.1,0-.3.2-.4.2-.6.5-1,1.1-1.3,1.6.2.4.5.8.7,1.2.3-.1.4.2.3.4,5.8,2.6,11.9,3.4,17.5,6.6,8.6,4.8,14.1,14.1,20.5,21.3,15.5,17.7,29.1,36.9,45.5,53.7,7.9,8.1,16.2,16.3,23,25.3,2.4,3.1,4.1,6.6,4.7,10.6.6,4.1.1,8.4.9,12.5.5,2.3,2.6,9.1,6.4,7.2,2.3-1.2,3.9-3.5,5.2-5.7,1.5-2.4,2.8-4.9,4-7.4-1.2.9-2.3,1.9-3.4,3,1-1.4,1.9-2.9,3.1-4.1,1.5-1.5,3-3,4.6-4.4,0,0,0,0,0,0,5.2-4,10.9-7.3,17-10.3,20.9-10.3,41.1-21.3,60.5-34.2,19.9-13.3,40.6-25.8,59.1-41,18.3-14.9,35-31.5,52.8-47,8.6-7.4,17.6-14.6,27.4-20.2,4.6-2.6,9.7-5,15-6.3,2.9.3,9.2.8,8.7-2.1-.2-1.3-2.2-2.1-3.6-2.5ZM362.7,114.9c5,13.4,6,33,20,40.8,7.9,4.4,18,11.2,8.6,20.2-5.4,5.1-13.4,6.8-20,9.8-10.3,4.7-17.8,14.7-25.5,22.7-17.7,18.5-36,36.5-56.4,52.1-10.9,8.3-22.4,15.9-34.6,22.1-8.6,4.4-23.1,13.3-33.3,10.5-18.9-5.2,10.8-35.3,16.4-40.7,15.5-14.8,31.7-28.2,50-39.5,11.2-6.9,22.5-14.6,30.2-25.4,8.1-11.3,9.6-24.5,12.6-37.7,2.3-10,8.6-19,11.4-28.9,4.4-15.6-11.9-7.3-18.6-3.4-12.2,7.2-23.8,15.6-36.7,21.6-12.5,5.9-26,9.2-38.5,14.9-34.1,15.5-76.6,39-82.4,80.2-1.5,11-1,28-7.2,37.5-10.2,15.9-26.7-4.6-32.5-13.4-6.2-9.4-10.6-19.9-17.5-28.8-7.7-10-15.7-10.9-26.2-16.4-14-7.5,37.6-49.2,44.4-54.8,12.1-9.9,24.6-19.5,36.9-29.2,14.8-11.7,29.4-23.8,45.3-34,23.4-15,50.6-29.6,77.4-37.3,7-2,13.7-4.5,19.5-9,2.3-1.8,5.8-7.2,8.7-7.5,6.6-.7,3.6,4.2,3.6,7.4.2,14.4,12.9,22.2,22.4,30.9,10.4,9.6,17.1,22,22,35.1Z"/>
        <path class="st4" d="M429,176.6c0,0-1.9-.8-2-.8-1.3-.8-3.9-1.2-5.3-1.9-6.3-3.3-12.7-7.8-17.6-13.1-2.3-2.5-6.2-9.2-8.2-12,2.4,8.2,4.1,16.7,10.2,19.5,3.9,1.8,7.6,4.7.5,9.2-10.6,6.6-23.1,10.3-33,18.1-10.4,8.2-20.1,17.1-29.6,26.3-17.9,17.3-35.9,34.4-55.3,50-22.2,17.8-49.2,34-75.1,45.9-6,2.7-15.3,6.6-17.6-2.6-2.4-9.3,4.6-21.4,8.7-29.3,5-9.8,10.4-19.6,16.4-28.9,11.2-17.5,26.2-31,40.4-45.8,14.7-15.3,23.5-34.9,35.1-52.4,8.6-12.9,18.3-24.9,28.5-36.5-15.1,10.5-29.6,22-43.1,34.6-15.4,14.4-29.8,29.8-42.7,46.5-12.3,15.9-34.8,45.1-41.6,64.3-5.9,16.9-15.1,59.7-35,49.9-12.8-6.3-22.3-23.2-31.9-33.4-13.6-14.5-25.7-25.2-33.2-43.6-2.5-6.1-5.2-14.3-11.7-17.2-6.4-2.9-12.4-1.7-18.9-.5-2.1.4-4.6.8-7.1.9,4.8,1.7,9.8,2.8,14.4,5.4,8.6,4.8,14.1,14.1,20.5,21.3,15.5,17.7,29.1,36.9,45.5,53.7,7.9,8.1,16.2,16.3,23.1,25.3,2.4,3.1,4.1,6.6,4.7,10.5.6,4.1.1,8.4.9,12.6.5,2.3,2.6,9.1,6.4,7.2,2.3-1.2,3.9-3.5,5.2-5.7,1.5-2.4,2.8-4.9,4-7.4-1.2.9-2.3,1.9-3.4,3,1-1.4,1.9-2.9,3.1-4.1,1.5-1.5,3-3,4.6-4.4,0,0,0,0,0,0,5.2-4,11-7.3,17-10.3,20.9-10.3,41.1-21.3,60.5-34.2,19.9-13.3,40.6-25.8,59.1-41,18.3-14.9,35-31.5,52.8-47,8.6-7.4,17.6-14.6,27.4-20.2,4.6-2.6,9.7-5,15-6.3,2.9.3,5.9,0,8.6-1.5,1-.6,1.1-3.9-.6-4.5Z"/>
        <path class="st2" d="M328.9,116.5c-32.2,21.8-60.5,48.9-84.5,79.5-12.4,15.9-23.6,32.9-33.3,50.6-4.6,8.3-8.7,16.9-12.3,25.7-1.6,3.8-2.9,7.5-3.8,11.4-1.2,4.9-2,10-4.7,14.3-.2.4,0,1.1.4.6,4-6.2,4.6-13.9,7.2-20.7,3.5-9.4,8.3-18.5,13.1-27.3,9.5-17.3,20.5-33.8,32.5-49.4,24.3-31.7,53.6-59.1,85.6-83,.6-.5.6-2.4-.3-1.8Z"/>
        <path class="st5" d="M239.1,162.3c-10.6,5.9-21.2,11.7-30.6,19.3-7.1,5.7-14,11.9-20.1,18.6-12.1,13.3-21.2,30.8-19.6,49.2,0,.1.2.1.2,0,.4-9.5,2.4-18.3,6.5-26.9,3.8-8,9.3-15.1,15.1-21.7,6-6.7,12.7-12.7,19.6-18.5,9.1-7.6,19.5-13.1,29.3-19.5.4-.3,0-.9-.4-.6Z"/>
        <path class="st1" d="M293.3,64.9c-8.5.4-17.6,4.5-25.5,7.4-8.6,3.2-17,7-25.1,11.3-18.5,9.9-35.6,22.3-52.6,34.6-31.4,22.9-66.8,44.6-89.1,77.1-.8,1.1.6,2.5,1.6,1.4,25.3-28.2,58.8-48.7,89.4-70.7,16.3-11.7,32.8-23.2,50.3-33.1,8.5-4.8,17.4-8.8,26.2-13.1,8.3-4,17.9-7.5,25.5-12.7,1-.7.5-2.4-.7-2.3Z"/>
        <path class="st1" d="M315.1,68.8c-.4-.4-1,.3-.6.7,21.9,20.7,34,50,45.3,77.2.5,1.1,2.4.9,2.2-.4-2.4-15.3-7.2-29.7-14.7-43.2-7.9-14.2-19.7-24.3-32.2-34.3Z"/>
        <path class="st1" d="M183.4,57.7c-31.8,14.6-61,36.2-87.2,59.3-12.9,11.4-24.9,23.8-35.1,37.7-10.2,13.8-17.2,28.1-22.7,44.2-.2.6.7.8,1,.3,31.3-60.9,91.1-101,144.6-140.5.5-.4.1-1.5-.5-1.1Z"/>
      </g>
      <g class="st3">
        <path class="st0" d="M395.5,25.4l17.3,268.4,128.5,190.2-139.5,1.9-92.5-126.9-242.6-126.6,116.5-73.3,132.8,76.1-13.7-151.1,93.1-58.6Z"/>
      </g>
    </g>
  </g>
</svg>